<?xml version="1.0" encoding="iso-8859-1"?>
<!-- Generator: Adobe Illustrator 19.0.0, SVG Export Plug-In . SVG Version: 6.00 Build 0)  -->
<svg version="1.1" id="Layer_1" xmlns="http://www.w3.org/2000/svg" xmlns:xlink="http://www.w3.org/1999/xlink" x="0px" y="0px"
	 viewBox="0 0 512.004 512.004" style="enable-background:new 0 0 512.004 512.004;" xml:space="preserve">
<rect x="328.056" y="143.914" style="fill:#CBBBA0;" width="96.073" height="24.023"/>
<polygon style="fill:#86CBED;" points="440.146,239.989 328.057,239.989 328.057,167.933 416.127,167.933 "/>
<rect x="328.056" y="239.986" style="fill:#F9B233;" width="168.133" height="120.096"/>
<rect x="464.164" y="272.011" style="fill:#E30613;" width="32.025" height="40.031"/>
<rect x="472.176" y="344.07" style="fill:#CBBBA0;" width="32.025" height="32.025"/>
<circle style="fill:#575756;" cx="408.117" cy="384.106" r="40.031"/>
<circle style="fill:#FFFFFF;" cx="408.117" cy="384.106" r="16.013"/>
<rect x="7.803" y="87.866" style="fill:#F9B233;" width="320.253" height="128.097"/>
<rect x="7.803" y="215.973" style="fill:#CBBBA0;" width="320.253" height="144.109"/>
<circle style="fill:#575756;" cx="103.876" cy="384.106" r="40.031"/>
<circle style="fill:#FFFFFF;" cx="103.876" cy="384.106" r="16.013"/>
<g>
	<path style="fill:#1D1D1B;" d="M408.121,407.919c-13.132,0-23.816-10.684-23.816-23.815c0-13.132,10.684-23.816,23.816-23.816
		c13.132,0,23.816,10.684,23.816,23.816C431.936,397.236,421.253,407.919,408.121,407.919z M408.121,375.895
		c-4.527,0-8.21,3.683-8.21,8.21c0,4.527,3.683,8.209,8.21,8.209c4.527,0,8.21-3.683,8.21-8.209
		C416.33,379.577,412.647,375.895,408.121,375.895z"/>
	<path style="fill:#1D1D1B;" d="M103.88,407.919c-13.132,0-23.816-10.684-23.816-23.815c0-13.132,10.684-23.816,23.816-23.816
		s23.816,10.684,23.816,23.816C127.695,397.236,117.012,407.919,103.88,407.919z M103.88,375.895c-4.527,0-8.21,3.683-8.21,8.21
		c0,4.527,3.683,8.209,8.21,8.209c4.527,0,8.21-3.683,8.21-8.209C112.089,379.577,108.406,375.895,103.88,375.895z"/>
	<rect x="352.079" y="264.207" style="fill:#1D1D1B;" width="32.025" height="15.606"/>
	<path style="fill:#1D1D1B;" d="M503.994,336.269V232.186h-58.223l-24.019-72.057h-85.89v-8.413h88.273V136.11h-88.273V80.066H0
		v287.822h58.88c-1.831,5.067-2.834,10.526-2.834,16.216c0,26.376,21.459,47.835,47.836,47.835s47.836-21.459,47.836-47.835
		c0-5.69-1.003-11.149-2.834-16.216h214.24c-1.831,5.067-2.834,10.526-2.834,16.216c0,26.376,21.459,47.835,47.836,47.835
		c26.377,0,47.836-21.459,47.836-47.835c0-5.69-1.003-11.149-2.834-16.216h11.247v16.013h47.632v-47.632H503.994z M488.388,304.243
		h-16.419v-24.425h16.419V304.243z M410.503,175.736l18.816,56.45H335.86v-56.45H410.503z M320.255,95.672v112.495H15.606V95.672
		H320.255z M103.88,416.332c-17.77,0-32.229-14.458-32.229-32.228c0-17.771,14.458-32.229,32.229-32.229
		s32.229,14.458,32.229,32.229C136.108,401.874,121.651,416.332,103.88,416.332z M103.88,336.269
		c-14.166,0-26.907,6.196-35.674,16.013h-52.6V223.773h304.649v128.508H139.554C130.788,342.464,118.047,336.269,103.88,336.269z
		 M408.121,416.332c-17.77,0-32.229-14.458-32.229-32.228c0-17.771,14.458-32.229,32.229-32.229
		c17.771,0,32.229,14.458,32.229,32.229C440.349,401.874,425.891,416.332,408.121,416.332z M443.795,352.281
		c-8.767-9.817-21.508-16.013-35.674-16.013s-26.907,6.196-35.674,16.013h-36.585V247.793h152.527v16.419h-32.025v55.638h32.025
		v16.419h-24.019v16.013H443.795z M496.394,368.295h-16.419v-16.419h16.419V368.295z"/>
</g>
<g>
	
		<rect x="352.291" y="196.636" transform="matrix(-0.7071 -0.7071 0.7071 -0.7071 467.6697 609.6325)" style="fill:#FFFFFF;" width="15.605" height="22.645"/>
	
		<rect x="384.32" y="196.631" transform="matrix(-0.7071 -0.7071 0.7071 -0.7071 522.3506 632.2707)" style="fill:#FFFFFF;" width="15.605" height="22.645"/>
	<rect x="288.021" y="240.194" style="fill:#FFFFFF;" width="16.013" height="15.606"/>
	<rect x="255.996" y="240.194" style="fill:#FFFFFF;" width="16.013" height="15.606"/>
	<rect x="223.972" y="240.194" style="fill:#FFFFFF;" width="16.013" height="15.606"/>
	<rect x="39.827" y="112.087" style="fill:#FFFFFF;" width="80.064" height="15.606"/>
</g>
<rect x="39.827" y="136.11" style="fill:#1D1D1B;" width="40.032" height="15.606"/>
<g>
</g>
<g>
</g>
<g>
</g>
<g>
</g>
<g>
</g>
<g>
</g>
<g>
</g>
<g>
</g>
<g>
</g>
<g>
</g>
<g>
</g>
<g>
</g>
<g>
</g>
<g>
</g>
<g>
</g>
</svg>
